<svg width="296" height="50" viewBox="0 0 296 50" fill="none" xmlns="http://www.w3.org/2000/svg">
    <g opacity="0.6">
        <path d="M4 2.51764H2V4.51764V46V48H4H291.837H293.837V46V4.51764V2.51764H291.837H4Z"
            fill="white" stroke="#3178A0" stroke-width="4" />
        <rect width="34.2245" height="26.3265" transform="translate(47 11.7755)" fill="white" />
        <path d="M72.6684 18.3571L55.5562 31.5204" stroke="#3178A0" stroke-width="2"
            stroke-linecap="round" stroke-linejoin="round" />
        <path d="M55.5562 18.3571L72.6684 31.5204" stroke="#3178A0" stroke-width="2"
            stroke-linecap="round" stroke-linejoin="round" />
        <path
            d="M100.082 26.4648H94.8611L93.0682 31H92.075L97.243 18.0977H97.8143L102.877 31H101.866L100.082 26.4648ZM95.1863 25.6562H99.783L98.034 21.0244C97.8875 20.6611 97.7117 20.1572 97.5066 19.5127C97.3484 20.0752 97.1756 20.585 96.9881 21.042L95.1863 25.6562ZM114.461 24.4521C114.461 26.6084 113.895 28.2402 112.764 29.3477C111.634 30.4492 109.972 31 107.781 31H104.705V18.1504H108.177C110.227 18.1504 111.786 18.6865 112.852 19.7588C113.925 20.8311 114.461 22.3955 114.461 24.4521ZM113.485 24.4873C113.485 22.6475 113.016 21.2646 112.079 20.3389C111.147 19.4072 109.776 18.9414 107.966 18.9414H105.601V30.209H107.728C111.566 30.209 113.485 28.3018 113.485 24.4873ZM127.17 24.4521C127.17 26.6084 126.604 28.2402 125.473 29.3477C124.343 30.4492 122.681 31 120.49 31H117.414V18.1504H120.886C122.936 18.1504 124.495 18.6865 125.561 19.7588C126.634 20.8311 127.17 22.3955 127.17 24.4521ZM126.194 24.4873C126.194 22.6475 125.725 21.2646 124.788 20.3389C123.856 19.4072 122.485 18.9414 120.675 18.9414H118.31V30.209H120.437C124.275 30.209 126.194 28.3018 126.194 24.4873ZM130.123 31V18.1504H131.019V31H130.123ZM138.007 31H137.101V18.9941H132.927V18.1504H142.181V18.9941H138.007V31ZM144.097 31V18.1504H144.994V31H144.097ZM159.434 24.5576C159.434 26.5967 158.925 28.2109 157.905 29.4004C156.886 30.584 155.479 31.1758 153.686 31.1758C151.899 31.1758 150.496 30.584 149.476 29.4004C148.457 28.2109 147.947 26.5908 147.947 24.54C147.947 22.4951 148.46 20.8867 149.485 19.7148C150.516 18.5371 151.923 17.9482 153.704 17.9482C155.497 17.9482 156.9 18.54 157.914 19.7236C158.928 20.9014 159.434 22.5127 159.434 24.5576ZM148.923 24.5576C148.923 26.3975 149.333 27.8213 150.153 28.8291C150.973 29.8311 152.151 30.332 153.686 30.332C155.233 30.332 156.414 29.834 157.228 28.8379C158.049 27.8418 158.459 26.415 158.459 24.5576C158.459 22.7061 158.049 21.2881 157.228 20.3037C156.414 19.3135 155.239 18.8184 153.704 18.8184C152.175 18.8184 150.994 19.3164 150.162 20.3125C149.336 21.3086 148.923 22.7236 148.923 24.5576ZM171.739 31H170.834L163.222 19.5918H163.152C163.222 20.9512 163.258 21.9766 163.258 22.668V31H162.396V18.1504H163.293L170.895 29.541H170.948C170.895 28.4863 170.869 27.4844 170.869 26.5352V18.1504H171.739V31ZM181.574 26.4648H176.353L174.56 31H173.567L178.735 18.0977H179.306L184.369 31H183.358L181.574 26.4648ZM176.679 25.6562H181.275L179.526 21.0244C179.38 20.6611 179.204 20.1572 178.999 19.5127C178.841 20.0752 178.668 20.585 178.48 21.042L176.679 25.6562ZM186.197 31V18.1504H187.094V30.1562H193.22V31H186.197ZM207.853 21.8418C207.853 23.084 207.431 24.0361 206.588 24.6982C205.744 25.3604 204.549 25.6914 203.002 25.6914H201.015V31H200.119V18.1504H203.265C206.324 18.1504 207.853 19.3809 207.853 21.8418ZM201.015 24.918H202.782C204.229 24.918 205.275 24.6807 205.92 24.2061C206.564 23.7256 206.887 22.9492 206.887 21.877C206.887 20.8867 206.582 20.1543 205.972 19.6797C205.363 19.1992 204.42 18.959 203.142 18.959H201.015V24.918ZM216.836 26.4648H211.615L209.822 31H208.829L213.997 18.0977H214.568L219.631 31H218.62L216.836 26.4648ZM211.94 25.6562H216.537L214.788 21.0244C214.641 20.6611 214.466 20.1572 214.261 19.5127C214.102 20.0752 213.93 20.585 213.742 21.042L211.94 25.6562ZM222.355 25.4014V31H221.459V18.1504H224.517C226.111 18.1504 227.289 18.4463 228.051 19.0381C228.812 19.624 229.193 20.5088 229.193 21.6924C229.193 22.5537 228.965 23.2803 228.508 23.8721C228.056 24.4639 227.368 24.8887 226.442 25.1465L229.931 31H228.859L225.546 25.4014H222.355ZM222.355 24.6279H224.807C225.891 24.6279 226.732 24.3877 227.33 23.9072C227.928 23.4209 228.226 22.7061 228.226 21.7627C228.226 20.7842 227.933 20.0723 227.347 19.627C226.762 19.1816 225.806 18.959 224.482 18.959H222.355V24.6279ZM235.513 31H234.607V18.9941H230.432V18.1504H239.687V18.9941H235.513V31ZM241.603 31V18.1504H242.5V31H241.603ZM253.161 31H246.138V18.1504H253.161V18.9766H247.035V23.8369H252.818V24.6631H247.035V30.1738H253.161V31ZM263.163 27.6865C263.163 28.7588 262.767 29.6084 261.976 30.2354C261.191 30.8623 260.145 31.1758 258.839 31.1758C257.268 31.1758 256.064 31.0029 255.226 30.6572V29.7607C256.152 30.1533 257.333 30.3496 258.768 30.3496C259.823 30.3496 260.658 30.1094 261.273 29.6289C261.894 29.1426 262.205 28.5068 262.205 27.7217C262.205 27.2354 262.102 26.834 261.897 26.5176C261.692 26.1953 261.358 25.9023 260.895 25.6387C260.432 25.375 259.753 25.0908 258.856 24.7861C257.544 24.335 256.636 23.8486 256.132 23.3271C255.634 22.7998 255.385 22.0996 255.385 21.2266C255.385 20.2656 255.76 19.4834 256.51 18.8799C257.265 18.2705 258.235 17.9658 259.419 17.9658C260.626 17.9658 261.76 18.1943 262.82 18.6514L262.495 19.4248C261.429 18.9795 260.409 18.7568 259.436 18.7568C258.487 18.7568 257.731 18.9766 257.169 19.416C256.606 19.8555 256.325 20.4531 256.325 21.209C256.325 21.6836 256.41 22.0732 256.58 22.3779C256.756 22.6826 257.04 22.958 257.432 23.2041C257.825 23.4443 258.499 23.7344 259.454 24.0742C260.456 24.4199 261.209 24.7568 261.713 25.085C262.217 25.4072 262.583 25.7764 262.811 26.1924C263.046 26.6025 263.163 27.1006 263.163 27.6865Z"
            fill="#3178A0" />
    </g>
</svg>
    